# xmcd CD database file
#
# Track frame offsets:
#	150
#	72779
#	103052
#	128238
#	173220
#	185103
#	215854
#	244130
#
# Disc length: 3561 seconds
#
# Revision: 2
# Processed by: cddbd v1.5.2PL0 Copyright (c) Steve Scherf et al.
# Submitted via: CDex 1.70beta2
#
DISCID=7c0de708
DTITLE=Laboratorium - Anthology 1971-1988 [CD03 - Aquarium Live)
DYEAR=2006
DGENRE=Jazz
TTITLE0=Struktura Przestrzeni
TTITLE1=Taki Ladny I Przyjemny
TTITLE2=Bzdragol
TTITLE3=Flamenco Na Miekko
TTITLE4=Dziewiecsil
TTITLE5=Struktura Przestrzeni
TTITLE6=Taki Latwy I Przyjemny
TTITLE7=Bzdragol
EXTD=YEAR: 2006
EXTT0=
EXTT1=
EXTT2=
EXTT3=
EXTT4=
EXTT5=
EXTT6=
EXTT7=
PLAYORDER=
